<?xml version="1.0" encoding="UTF-8" standalone="no"?>
<svg
   version="1.1"
   id="ntnulogo"
   width="391.14778162897mm"
   height="37.632969mm"
   viewBox="0 0 1108.7630303724 106.67590795627"
   sodipodi:docname="php2J0krA"
   xmlns:inkscape="http://www.inkscape.org/namespaces/inkscape"
   xmlns:sodipodi="http://sodipodi.sourceforge.net/DTD/sodipodi-0.dtd"
   xmlns="http://www.w3.org/2000/svg"
   xmlns:svg="http://www.w3.org/2000/svg">
  <sodipodi:namedview
     id="namedview16"
     pagecolor="#ffffff"
     bordercolor="#666666"
     borderopacity="1.0"
     inkscape:pageshadow="2"
     inkscape:pageopacity="0.0"
     inkscape:pagecheckerboard="0"
     inkscape:document-units="mm" />
  <defs
     id="defs" />
  <g
     transform="matrix(2,0,0,2,0,1.1437865)"
     id="g">
    <path
       d="M 33.081001,17.082001 H 11.024 v 22.062 h 22.057001 z m 0,33.084999 H 11.024 C 4.935,50.167 0,45.23 0,39.144001 v -22.062 C 0,10.998 4.935,6.062 11.024,6.062 h 22.057001 c 6.087998,0 11.022,4.936 11.022,11.020001 v 22.062 c 0,6.085999 -4.934002,11.022999 -11.022,11.022999 z"
       stroke="none"
       stroke-width="1"
       stroke-linecap="butt"
       stroke-linejoin="miter"
       stroke-miterlimit="4"
       stroke-opacity="1"
       transform="matrix(1,0,0,-1,0,53.570301)"
       fill="#00509e"
       fill-rule="nonzero"
       fill-opacity="1"
       id="logo-firkant" />
    <path
       d="m 0,0 c -4.997,0 -9.046,-4.054 -9.046,-9.049 0,-4.998 4.049,-9.045999 9.046,-9.045999 4.996,0 9.046,4.047999 9.046,9.045999 C 9.046,-4.054 4.996,0 0,0 Z"
       stroke="none"
       stroke-width="1"
       stroke-linecap="butt"
       stroke-linejoin="miter"
       stroke-miterlimit="4"
       stroke-opacity="1"
       transform="matrix(1,0,0,-1,21.978201,16.333)"
       fill="#00509e"
       fill-rule="nonzero"
       fill-opacity="1"
       id="logo-runding" />
    <path
       d="M 0,0 21.479,-31.225 V -7.2 l -0.062,5.714 H 14.962 V 0 H 28.805 V -1.486 H 23.466 L 23.404,-7.2 V -44.386002 L 22.411,-44.696999 -6.394,-2.792 v -33.649002 l 0.061,-5.896 H 0.308 V -43.827 h -14.337 v 1.489998 h 5.71 l 0.061,5.896 V -7.2 l -0.061,5.714 h -5.71 V 0 Z"
       stroke="none"
       stroke-width="1"
       stroke-linecap="butt"
       stroke-linejoin="miter"
       stroke-miterlimit="4"
       stroke-opacity="1"
       transform="matrix(1,0,0,-1,74.955803,3.4502)"
       fill="#000000"
       fill-rule="nonzero"
       fill-opacity="1"
       id="n1" />
    <path
       d="m 0,0 v -14.027 h -1.863 c -0.187,2.172 -0.436,4.901 -2.36,8.131 -2.234,3.786 -5.277,3.974 -8.256,4.098 h -3.478 l -0.06,-5.588 v -28.616998 l 0.06,-6.334004 H -9.25 V -43.827 h -20.361 v 1.489998 h 6.702 l 0.064,6.334004 V -7.386 l -0.064,5.588 h -2.855999 c -3.600001,-0.062 -6.330002,-0.062 -8.938,-4.221 -2.048,-3.292 -2.235001,-5.899 -2.360001,-8.008 h -1.799 V 0 Z"
       stroke="none"
       stroke-width="1"
       stroke-linecap="butt"
       stroke-linejoin="miter"
       stroke-miterlimit="4"
       stroke-opacity="1"
       transform="matrix(1,0,0,-1,146.5964,3.4502)"
       fill="#000000"
       fill-rule="nonzero"
       fill-opacity="1"
       id="t" />
    <path
       d="M 0,0 21.479,-31.225 V -7.2 l -0.061,5.714 H 14.961 V 0 H 28.804001 V -1.486 H 23.465 L 23.402,-7.2 V -44.386002 L 22.409,-44.696999 -6.396,-2.792 v -33.649002 l 0.063,-5.896 H 0.312 V -43.827 h -14.343 v 1.489998 h 5.714 l 0.058,5.896 V -7.2 l -0.058,5.714 h -5.714 V 0 Z"
       stroke="none"
       stroke-width="1"
       stroke-linecap="butt"
       stroke-linejoin="miter"
       stroke-miterlimit="4"
       stroke-opacity="1"
       transform="matrix(1,0,0,-1,164.2263,3.4502)"
       fill="#000000"
       fill-rule="nonzero"
       fill-opacity="1"
       id="n2" />
    <path
       d="m 0,0 v -1.486 h -6.148 l -0.059,-5.28 V -30.48 c 0.059,-6.145999 0.186,-11.979999 11.732,-11.979999 11.67,0 12.415001,5.09 12.6,10.615 V -6.766 l -0.06,5.28 H 11.797 V 0 H 25.511999 V -1.486 H 20.115 l -0.062,-5.28 v -22.598 c -0.065,-8.131998 -0.126,-15.082999 -16.204,-15.082999 -2.294,0 -7.761,0.246998 -11.235,1.675999 -5.525,2.359001 -5.649,7.200001 -5.712,13.160999 V -6.766 l -0.063,5.28 H -18.5 V 0 Z"
       stroke="none"
       stroke-width="1"
       stroke-linecap="butt"
       stroke-linejoin="miter"
       stroke-miterlimit="4"
       stroke-opacity="1"
       transform="matrix(1,0,0,-1,217.13451,3.4502)"
       fill="#000000"
       fill-rule="nonzero"
       fill-opacity="1"
       id="u" />
    <path
       d="m 0,0 c -0.276,0 -0.5,0.224 -0.5,0.5 v 42.859 c 0,0.277001 0.224,0.5 0.5,0.5 0.276,0 0.5,-0.222999 0.5,-0.5 V 0.5 C 0.5,0.224 0.276,0 0,0 Z"
       stroke="none"
       stroke-width="1"
       stroke-linecap="butt"
       stroke-linejoin="miter"
       stroke-miterlimit="4"
       stroke-opacity="1"
       transform="matrix(1,0,0,-1,269.759,47.291)"
       fill="#000000"
       fill-rule="nonzero"
       fill-opacity="1"
       id="strek" />
    <g
       aria-label="Department of"
       id="tekst1"
       style="font-size:24.0018px;line-height:125%;font-family:'Open Sans';text-align:left;letter-spacing:0px;word-spacing:0px;display:inline;stroke-width:0.375001px">
      <path
         d="m 314.03245,11.768876 q 0,4.242506 -2.30876,6.492675 Q 309.42664,20.5 305.1021,20.5 h -4.74645 V 3.3659022 h 5.25039 q 3.99639,0 6.2114,2.2150099 2.21501,2.2150099 2.21501,6.1879639 z m -2.10953,0.07032 q 0,-3.3518139 -1.68763,-5.0511601 -1.6759,-1.6993463 -4.99256,-1.6993463 h -2.89475 V 18.777215 h 2.42597 q 3.56276,0 5.35587,-1.746225 1.7931,-1.757945 1.7931,-5.191796 z"
         id="path18" />
      <path
         d="m 322.98625,20.734393 q -2.84787,0 -4.50034,-1.734506 -1.64075,-1.734505 -1.64075,-4.816767 0,-3.105702 1.52356,-4.933964 1.53527,-1.8282622 4.11358,-1.8282622 2.41425,0 3.8206,1.5938696 1.40636,1.5821496 1.40636,4.1839076 v 1.230561 h -8.84832 q 0.0586,2.261889 1.1368,3.433851 1.08993,1.171963 3.05883,1.171963 2.07437,0 4.10187,-0.867252 v 1.734505 q -1.03133,0.445346 -1.95718,0.63286 -0.91413,0.199234 -2.21501,0.199234 z M 322.45887,9.0499223 q -1.547,0 -2.47285,1.0078877 -0.91413,1.007889 -1.0782,2.789272 h 6.71535 q 0,-1.839982 -0.82038,-2.812711 -0.82037,-0.9844487 -2.34392,-0.9844487 z"
         id="path20" />
      <path
         d="m 337.00293,20.734393 q -1.254,0 -2.29705,-0.457066 -1.03133,-0.468785 -1.73451,-1.429795 h -0.14063 q 0.14063,1.125085 0.14063,2.132973 v 5.285553 h -1.94545 V 7.6552864 h 1.58215 l 0.26955,1.7579444 h 0.0937 q 0.75006,-1.0547666 1.74623,-1.5235518 0.99617,-0.4687852 2.28533,-0.4687852 2.55488,0 3.93779,1.7462248 1.39464,1.7462244 1.39464,4.8988054 0,3.164299 -1.41808,4.922244 -1.40635,1.746225 -3.91435,1.746225 z M 336.72166,9.0733616 q -1.9689,0 -2.84787,1.0899254 -0.87898,1.089926 -0.90242,3.46901 v 0.433627 q 0,2.707234 0.90242,3.879197 0.90241,1.160243 2.89474,1.160243 1.66419,0 2.60176,-1.347757 0.94929,-1.347758 0.94929,-3.715123 0,-2.402524 -0.94929,-3.679963 -0.93757,-1.2891594 -2.64863,-1.2891594 z"
         id="path22" />
      <path
         d="m 353.63308,20.5 -0.38675,-1.828262 h -0.0938 q -0.96101,1.207122 -1.92201,1.640748 -0.94929,0.421907 -2.37909,0.421907 -1.9103,0 -3.00022,-0.984449 -1.07821,-0.984449 -1.07821,-2.800992 0,-3.890917 6.22312,-4.078431 l 2.17985,-0.07032 v -0.796935 q 0,-1.511832 -0.6563,-2.2267297 -0.64458,-0.726617 -2.07437,-0.726617 -1.60559,0 -3.63309,0.9844487 l -0.5977,-1.4883928 q 0.94929,-0.5156636 2.07438,-0.8086544 1.1368,-0.2929907 2.27361,-0.2929907 2.29704,0 3.39869,1.0196077 1.11336,1.0196078 1.11336,3.2697762 V 20.5 Z m -4.39486,-1.371197 q 1.81654,0 2.84787,-0.996168 1.04305,-0.996169 1.04305,-2.789272 V 14.18312 l -1.94546,0.08204 q -2.32049,0.08204 -3.35182,0.726617 -1.01961,0.63286 -1.01961,1.980618 0,1.054766 0.63286,1.605589 0.64458,0.550822 1.79311,0.550822 z"
         id="path24" />
      <path
         d="m 364.94252,7.4208938 q 0.85553,0 1.53527,0.1406356 l -0.26955,1.8048229 q -0.79694,-0.1757944 -1.40636,-0.1757944 -1.55871,0 -2.67207,1.2657201 -1.10165,1.26572 -1.10165,3.15258 V 20.5 H 359.0827 V 7.6552864 h 1.60559 l 0.22268,2.3790846 h 0.0937 q 0.7149,-1.2540002 1.72279,-1.9337387 1.00789,-0.6797385 2.21501,-0.6797385 z"
         id="path26" />
      <path
         d="m 373.02907,19.128803 q 0.51566,0 0.99617,-0.07032 0.4805,-0.08204 0.76177,-0.164075 v 1.488393 q -0.31643,0.152355 -0.93757,0.246112 -0.60942,0.105477 -1.10164,0.105477 -3.72684,0 -3.72684,-3.926076 V 9.1671186 h -1.83999 V 8.2295483 l 1.83999,-0.8086545 0.82037,-2.7423932 h 1.12508 v 2.9767858 h 3.72685 v 1.5118322 h -3.72685 v 7.5591604 q 0,1.160244 0.55083,1.781384 0.55082,0.62114 1.51183,0.62114 z"
         id="path28" />
      <path
         d="m 393.72593,20.5 v -8.356096 q 0,-1.535271 -0.6563,-2.2970469 -0.6563,-0.7734955 -2.03921,-0.7734955 -1.81655,0 -2.6838,1.0430474 -0.86725,1.043047 -0.86725,3.211178 V 20.5 h -1.94546 v -8.356096 q 0,-1.535271 -0.6563,-2.2970469 -0.6563,-0.7734955 -2.05093,-0.7734955 -1.82827,0 -2.6838,1.1016454 -0.84381,1.089925 -0.84381,3.586206 V 20.5 h -1.94546 V 7.6552864 h 1.58215 l 0.31643,1.7579444 h 0.0938 q 0.55082,-0.9375703 1.54699,-1.4649536 1.00789,-0.5273834 2.25017,-0.5273834 3.01194,0 3.93779,2.1798511 h 0.0938 q 0.57426,-1.0078881 1.66419,-1.5938696 1.08992,-0.5859815 2.48456,-0.5859815 2.17985,0 3.25805,1.1250844 1.08993,1.1133648 1.08993,3.5744868 V 20.5 Z"
         id="path30" />
      <path
         d="m 405.10569,20.734393 q -2.84787,0 -4.50033,-1.734506 -1.64075,-1.734505 -1.64075,-4.816767 0,-3.105702 1.52355,-4.933964 1.53527,-1.8282622 4.11359,-1.8282622 2.41424,0 3.8206,1.5938696 1.40636,1.5821496 1.40636,4.1839076 v 1.230561 h -8.84832 q 0.0586,2.261889 1.1368,3.433851 1.08992,1.171963 3.05882,1.171963 2.07438,0 4.10187,-0.867252 v 1.734505 q -1.03132,0.445346 -1.95718,0.63286 -0.91413,0.199234 -2.21501,0.199234 z M 404.57831,9.0499223 q -1.54699,0 -2.47284,1.0078877 -0.91413,1.007889 -1.07821,2.789272 h 6.71535 q 0,-1.839982 -0.82037,-2.812711 -0.82038,-0.9844487 -2.34393,-0.9844487 z"
         id="path32" />
      <path
         d="m 421.93508,20.5 v -8.309217 q 0,-1.57043 -0.7149,-2.3439259 -0.7149,-0.7734955 -2.23845,-0.7734955 -2.01577,0 -2.95334,1.0899254 -0.93757,1.089926 -0.93757,3.597926 V 20.5 h -1.94546 V 7.6552864 h 1.58215 l 0.31643,1.7579444 h 0.0937 q 0.59771,-0.94929 1.67591,-1.4649536 1.07821,-0.5273834 2.40253,-0.5273834 2.32048,0 3.49244,1.1250844 1.17197,1.1133648 1.17197,3.5744868 V 20.5 Z"
         id="path34" />
      <path
         d="m 432.02568,19.128803 q 0.51566,0 0.99617,-0.07032 0.4805,-0.08204 0.76178,-0.164075 v 1.488393 q -0.31643,0.152355 -0.93757,0.246112 -0.60943,0.105477 -1.10165,0.105477 -3.72684,0 -3.72684,-3.926076 V 9.1671186 h -1.83998 V 8.2295483 l 1.83998,-0.8086545 0.82037,-2.7423932 h 1.12509 v 2.9767858 h 3.72684 v 1.5118322 h -3.72684 v 7.5591604 q 0,1.160244 0.55082,1.781384 0.55082,0.62114 1.51183,0.62114 z"
         id="path36" />
      <path
         d="m 453.67184,14.065924 q 0,3.14086 -1.58215,4.910524 -1.58215,1.757945 -4.37142,1.757945 -1.72279,0 -3.05883,-0.808655 -1.33603,-0.808654 -2.06265,-2.320486 -0.72662,-1.511833 -0.72662,-3.539328 0,-3.140861 1.57043,-4.8870858 1.57043,-1.7579444 4.3597,-1.7579444 2.69552,0 4.27767,1.7931033 1.59387,1.7931029 1.59387,4.8519269 z m -9.78589,0 q 0,2.461122 0.98445,3.750281 0.98445,1.289159 2.89475,1.289159 1.9103,0 2.89474,-1.277439 0.99617,-1.28916 0.99617,-3.762001 0,-2.449403 -0.99617,-3.715123 -0.98444,-1.2774394 -2.91818,-1.2774394 -1.9103,0 -2.88303,1.2540004 -0.97273,1.254 -0.97273,3.738562 z"
         id="path38" />
      <path
         d="m 462.87174,9.1671186 h -3.26977 V 20.5 h -1.94546 V 9.1671186 h -2.29705 V 8.2881464 l 2.29705,-0.7031777 V 6.8700713 q 0,-4.7347302 4.13703,-4.7347302 1.01961,0 2.3908,0.410187 l -0.50394,1.5587107 q -1.12509,-0.3633085 -1.92202,-0.3633085 -1.10165,0 -1.62903,0.7383366 -0.52738,0.726617 -0.52738,2.3439259 v 0.8320936 h 3.26977 z"
         id="path40" />
    </g>
    <g
       aria-label="Mathematical Sciences"
       id="tekst2"
       style="font-size:24.0018px;line-height:125%;font-family:'Open Sans';text-align:left;letter-spacing:0px;word-spacing:0px;display:inline;stroke-width:0.375001px">
      <path
         d="m 307.93825,47 -5.81294,-15.188639 h -0.0938 q 0.16408,1.804822 0.16408,4.289384 V 47 h -1.83998 V 29.865902 h 3.00022 l 5.42619,14.133873 h 0.0938 l 5.47306,-14.133873 h 2.97679 V 47 h -1.99234 V 35.960109 q 0,-1.89858 0.16408,-4.125309 h -0.0938 L 309.54383,47 Z"
         id="path43" />
      <path
         d="m 329.63128,47 -0.38675,-1.828262 h -0.0938 q -0.96101,1.207122 -1.92202,1.640748 -0.94929,0.421907 -2.37908,0.421907 -1.9103,0 -3.00023,-0.984449 -1.0782,-0.984449 -1.0782,-2.800992 0,-3.890917 6.22312,-4.078431 l 2.17985,-0.07032 v -0.796935 q 0,-1.511832 -0.6563,-2.22673 -0.64458,-0.726617 -2.07437,-0.726617 -1.60559,0 -3.63309,0.984449 l -0.5977,-1.488393 q 0.94929,-0.515663 2.07438,-0.808654 1.1368,-0.292991 2.27361,-0.292991 2.29704,0 3.39869,1.019608 1.11336,1.019608 1.11336,3.269776 V 47 Z m -4.39486,-1.371197 q 1.81654,0 2.84787,-0.996168 1.04304,-0.996169 1.04304,-2.789272 V 40.68312 l -1.94545,0.08204 q -2.32049,0.08204 -3.35182,0.726617 -1.01961,0.63286 -1.01961,1.980618 0,1.054766 0.63286,1.605589 0.64458,0.550822 1.79311,0.550822 z"
         id="path45" />
      <path
         d="m 339.22965,45.628803 q 0.51567,0 0.99617,-0.07032 0.48051,-0.08204 0.76178,-0.164075 v 1.488393 q -0.31643,0.152355 -0.93757,0.246112 -0.60942,0.105477 -1.10165,0.105477 -3.72684,0 -3.72684,-3.926076 v -7.641198 h -1.83998 v -0.937571 l 1.83998,-0.808654 0.82037,-2.742393 h 1.12509 v 2.976785 h 3.72684 v 1.511833 H 337.167 v 7.55916 q 0,1.160244 0.55082,1.781384 0.55082,0.62114 1.51183,0.62114 z"
         id="path47" />
      <path
         d="m 352.34392,47 v -8.309217 q 0,-1.57043 -0.7149,-2.343926 -0.7149,-0.773495 -2.23845,-0.773495 -2.02749,0 -2.96506,1.101645 -0.92585,1.101645 -0.92585,3.609645 V 47 H 343.5542 V 28.764257 h 1.94546 v 5.519945 q 0,0.996169 -0.0938,1.652468 h 0.1172 q 0.57426,-0.925851 1.62902,-1.453234 1.06649,-0.539103 2.42597,-0.539103 2.35564,0 3.52761,1.125085 1.18368,1.113364 1.18368,3.551047 V 47 Z"
         id="path49" />
      <path
         d="m 363.71196,47.234393 q -2.84787,0 -4.50034,-1.734506 -1.64074,-1.734505 -1.64074,-4.816767 0,-3.105702 1.52355,-4.933964 1.53527,-1.828262 4.11359,-1.828262 2.41424,0 3.8206,1.593869 1.40635,1.58215 1.40635,4.183908 v 1.230561 h -8.84832 q 0.0586,2.261889 1.13681,3.433851 1.08992,1.171963 3.05882,1.171963 2.07437,0 4.10187,-0.867252 v 1.734505 q -1.03133,0.445346 -1.95718,0.63286 -0.91413,0.199234 -2.21501,0.199234 z m -0.52738,-11.684471 q -1.54699,0 -2.47284,1.007888 -0.91414,1.007889 -1.07821,2.789272 h 6.71535 q 0,-1.839982 -0.82038,-2.812711 -0.82037,-0.984449 -2.34392,-0.984449 z"
         id="path51" />
      <path
         d="m 388.12395,47 v -8.356096 q 0,-1.535271 -0.6563,-2.297047 -0.6563,-0.773495 -2.03922,-0.773495 -1.81654,0 -2.68379,1.043047 -0.86725,1.043047 -0.86725,3.211178 V 47 h -1.94546 v -8.356096 q 0,-1.535271 -0.6563,-2.297047 -0.6563,-0.773495 -2.05094,-0.773495 -1.82826,0 -2.68379,1.101645 -0.84381,1.089925 -0.84381,3.586206 V 47 h -1.94546 V 34.155286 h 1.58215 l 0.31643,1.757945 h 0.0937 q 0.55083,-0.937571 1.547,-1.464954 1.00788,-0.527383 2.25016,-0.527383 3.01195,0 3.9378,2.179851 h 0.0938 q 0.57426,-1.007888 1.66418,-1.59387 1.08993,-0.585981 2.48457,-0.585981 2.17985,0 3.25805,1.125084 1.08993,1.113365 1.08993,3.574487 V 47 Z"
         id="path53" />
      <path
         d="m 401.97655,47 -0.38675,-1.828262 h -0.0938 q -0.96101,1.207122 -1.92202,1.640748 -0.94929,0.421907 -2.37908,0.421907 -1.9103,0 -3.00023,-0.984449 -1.0782,-0.984449 -1.0782,-2.800992 0,-3.890917 6.22312,-4.078431 l 2.17985,-0.07032 v -0.796935 q 0,-1.511832 -0.6563,-2.22673 -0.64458,-0.726617 -2.07437,-0.726617 -1.60559,0 -3.63309,0.984449 l -0.5977,-1.488393 q 0.94929,-0.515663 2.07438,-0.808654 1.1368,-0.292991 2.2736,-0.292991 2.29705,0 3.3987,1.019608 1.11336,1.019608 1.11336,3.269776 V 47 Z m -4.39486,-1.371197 q 1.81654,0 2.84787,-0.996168 1.04304,-0.996169 1.04304,-2.789272 V 40.68312 l -1.94546,0.08204 q -2.32048,0.08204 -3.35181,0.726617 -1.01961,0.63286 -1.01961,1.980618 0,1.054766 0.63286,1.605589 0.64458,0.550822 1.79311,0.550822 z"
         id="path55" />
      <path
         d="m 411.57493,45.628803 q 0.51566,0 0.99617,-0.07032 0.4805,-0.08204 0.76177,-0.164075 v 1.488393 q -0.31643,0.152355 -0.93757,0.246112 -0.60942,0.105477 -1.10164,0.105477 -3.72684,0 -3.72684,-3.926076 v -7.641198 h -1.83999 v -0.937571 l 1.83999,-0.808654 0.82037,-2.742393 h 1.12508 v 2.976785 h 3.72685 v 1.511833 h -3.72685 v 7.55916 q 0,1.160244 0.55083,1.781384 0.55082,0.62114 1.51183,0.62114 z"
         id="path57" />
      <path
         d="m 417.84493,47 h -1.94546 V 34.155286 h 1.94546 z m -2.10954,-16.325443 q 0,-0.668019 0.32815,-0.97273 0.32815,-0.31643 0.82038,-0.31643 0.46878,0 0.80865,0.31643 0.33987,0.31643 0.33987,0.97273 0,0.656299 -0.33987,0.984448 -0.33987,0.31643 -0.80865,0.31643 -0.49223,0 -0.82038,-0.31643 -0.32815,-0.328149 -0.32815,-0.984448 z"
         id="path59" />
      <path
         d="m 427.10344,47.234393 q -2.78927,0 -4.32455,-1.711066 -1.52355,-1.722786 -1.52355,-4.863646 0,-3.222898 1.54699,-4.980843 1.55871,-1.757944 4.43002,-1.757944 0.92585,0 1.8517,0.199234 0.92586,0.199233 1.45324,0.468785 l -0.5977,1.652467 q -0.64458,-0.257831 -1.40636,-0.421906 -0.76177,-0.175795 -1.34776,-0.175795 -3.91435,0 -3.91435,4.992562 0,2.367365 0.94929,3.633085 0.96101,1.26572 2.83615,1.26572 1.60559,0 3.29321,-0.691458 v 1.722786 q -1.28915,0.668019 -3.24633,0.668019 z"
         id="path61" />
      <path
         d="m 441.29591,47 -0.38674,-1.828262 h -0.0938 q -0.96101,1.207122 -1.92202,1.640748 -0.94929,0.421907 -2.37909,0.421907 -1.91029,0 -3.00022,-0.984449 -1.07821,-0.984449 -1.07821,-2.800992 0,-3.890917 6.22313,-4.078431 l 2.17985,-0.07032 v -0.796935 q 0,-1.511832 -0.6563,-2.22673 -0.64458,-0.726617 -2.07438,-0.726617 -1.60559,0 -3.63308,0.984449 l -0.5977,-1.488393 q 0.94929,-0.515663 2.07437,-0.808654 1.13681,-0.292991 2.27361,-0.292991 2.29705,0 3.39869,1.019608 1.11337,1.019608 1.11337,3.269776 V 47 Z m -4.39486,-1.371197 q 1.81654,0 2.84787,-0.996168 1.04305,-0.996169 1.04305,-2.789272 V 40.68312 l -1.94546,0.08204 q -2.32049,0.08204 -3.35181,0.726617 -1.01961,0.63286 -1.01961,1.980618 0,1.054766 0.63286,1.605589 0.64458,0.550822 1.7931,0.550822 z"
         id="path63" />
      <path
         d="m 448.69099,47 h -1.94546 V 28.764257 h 1.94546 z"
         id="path65" />
      <path
         d="m 469.01283,42.441064 q 0,2.261889 -1.64074,3.527609 -1.64075,1.26572 -4.45346,1.26572 -3.04711,0 -4.68785,-0.785216 v -1.922019 q 1.05476,0.445346 2.29704,0.703178 1.24228,0.257832 2.46113,0.257832 1.99233,0 3.00022,-0.750056 1.00789,-0.761776 1.00789,-2.109534 0,-0.890691 -0.36331,-1.453234 -0.35159,-0.574262 -1.1954,-1.054766 -0.8321,-0.480505 -2.54316,-1.089926 -2.39081,-0.855533 -3.42213,-2.027496 -1.01961,-1.171963 -1.01961,-3.058823 0,-1.980617 1.48839,-3.15258 1.48839,-1.171963 3.9378,-1.171963 2.55488,0 4.69957,0.93757 l -0.62114,1.734505 q -2.12126,-0.890691 -4.12531,-0.890691 -1.58215,0 -2.47284,0.679738 -0.8907,0.679739 -0.8907,1.88686 0,0.890692 0.32815,1.464954 0.32815,0.562542 1.10165,1.043047 0.78521,0.468785 2.3908,1.043047 2.69552,0.96101 3.70341,2.062655 1.0196,1.101645 1.0196,2.859589 z"
         id="path67" />
      <path
         d="m 477.3572,47.234393 q -2.78927,0 -4.32454,-1.711066 -1.52356,-1.722786 -1.52356,-4.863646 0,-3.222898 1.54699,-4.980843 1.55872,-1.757944 4.43002,-1.757944 0.92586,0 1.85171,0.199234 0.92585,0.199233 1.45323,0.468785 l -0.5977,1.652467 q -0.64458,-0.257831 -1.40636,-0.421906 -0.76177,-0.175795 -1.34775,-0.175795 -3.91436,0 -3.91436,4.992562 0,2.367365 0.94929,3.633085 0.96101,1.26572 2.83615,1.26572 1.60559,0 3.29322,-0.691458 v 1.722786 q -1.28916,0.668019 -3.24634,0.668019 z"
         id="path69" />
      <path
         d="m 485.59611,47 h -1.94546 V 34.155286 h 1.94546 z m -2.10953,-16.325443 q 0,-0.668019 0.32815,-0.97273 0.32815,-0.31643 0.82037,-0.31643 0.46879,0 0.80866,0.31643 0.33986,0.31643 0.33986,0.97273 0,0.656299 -0.33986,0.984448 -0.33987,0.31643 -0.80866,0.31643 -0.49222,0 -0.82037,-0.31643 -0.32815,-0.328149 -0.32815,-0.984448 z"
         id="path71" />
      <path
         d="m 495.1476,47.234393 q -2.84787,0 -4.50034,-1.734506 -1.64075,-1.734505 -1.64075,-4.816767 0,-3.105702 1.52355,-4.933964 1.53527,-1.828262 4.11359,-1.828262 2.41425,0 3.8206,1.593869 1.40636,1.58215 1.40636,4.183908 v 1.230561 h -8.84832 q 0.0586,2.261889 1.1368,3.433851 1.08993,1.171963 3.05882,1.171963 2.07438,0 4.10187,-0.867252 v 1.734505 q -1.03132,0.445346 -1.95717,0.63286 -0.91414,0.199234 -2.21501,0.199234 z m -0.52739,-11.684471 q -1.54699,0 -2.47284,1.007888 -0.91413,1.007889 -1.07821,2.789272 h 6.71535 q 0,-1.839982 -0.82037,-2.812711 -0.82038,-0.984449 -2.34393,-0.984449 z"
         id="path73" />
      <path
         d="m 511.977,47 v -8.309217 q 0,-1.57043 -0.7149,-2.343926 -0.7149,-0.773495 -2.23845,-0.773495 -2.01578,0 -2.95335,1.089925 -0.93757,1.089926 -0.93757,3.597926 V 47 h -1.94546 V 34.155286 h 1.58215 l 0.31643,1.757945 h 0.0938 q 0.5977,-0.94929 1.67591,-1.464954 1.0782,-0.527383 2.40252,-0.527383 2.32049,0 3.49245,1.125084 1.17196,1.113365 1.17196,3.574487 V 47 Z"
         id="path75" />
      <path
         d="m 523.05204,47.234393 q -2.78927,0 -4.32454,-1.711066 -1.52356,-1.722786 -1.52356,-4.863646 0,-3.222898 1.54699,-4.980843 1.55871,-1.757944 4.43002,-1.757944 0.92585,0 1.85171,0.199234 0.92585,0.199233 1.45323,0.468785 l -0.5977,1.652467 q -0.64458,-0.257831 -1.40636,-0.421906 -0.76177,-0.175795 -1.34775,-0.175795 -3.91436,0 -3.91436,4.992562 0,2.367365 0.94929,3.633085 0.96101,1.26572 2.83615,1.26572 1.60559,0 3.29322,-0.691458 v 1.722786 q -1.28916,0.668019 -3.24634,0.668019 z"
         id="path77" />
      <path
         d="m 534.77166,47.234393 q -2.84787,0 -4.50033,-1.734506 -1.64075,-1.734505 -1.64075,-4.816767 0,-3.105702 1.52355,-4.933964 1.53527,-1.828262 4.11359,-1.828262 2.41424,0 3.8206,1.593869 1.40636,1.58215 1.40636,4.183908 v 1.230561 h -8.84832 q 0.0586,2.261889 1.1368,3.433851 1.08992,1.171963 3.05882,1.171963 2.07438,0 4.10187,-0.867252 v 1.734505 q -1.03132,0.445346 -1.95718,0.63286 -0.91413,0.199234 -2.21501,0.199234 z m -0.52738,-11.684471 q -1.54699,0 -2.47284,1.007888 -0.91413,1.007889 -1.07821,2.789272 h 6.71535 q 0,-1.839982 -0.82037,-2.812711 -0.82038,-0.984449 -2.34393,-0.984449 z"
         id="path79" />
      <path
         d="m 551.09711,43.495831 q 0,1.793103 -1.33604,2.765832 -1.33604,0.97273 -3.75028,0.97273 -2.55488,0 -3.98468,-0.808655 v -1.804823 q 0.92585,0.468785 1.98062,0.738337 1.06649,0.269551 2.05093,0.269551 1.52356,0 2.34393,-0.480504 0.82037,-0.492225 0.82037,-1.488393 0,-0.750057 -0.65629,-1.27744 -0.64458,-0.539103 -2.53144,-1.26572 -1.79311,-0.668019 -2.55488,-1.160243 -0.75006,-0.503944 -1.12509,-1.136804 -0.36331,-0.63286 -0.36331,-1.511832 0,-1.570431 1.27744,-2.472842 1.27744,-0.914131 3.50417,-0.914131 2.07438,0 4.05499,0.843813 l -0.69145,1.58215 q -1.93374,-0.796935 -3.50417,-0.796935 -1.38292,0 -2.0861,0.433627 -0.70318,0.433626 -0.70318,1.195402 0,0.515663 0.25784,0.878972 0.26955,0.363308 0.85553,0.691458 0.58598,0.32815 2.25017,0.94929 2.28533,0.832094 3.08226,1.675907 0.80866,0.843813 0.80866,2.121253 z"
         id="path81" />
    </g>
  </g>
</svg>
